<svg xmlns="http://www.w3.org/2000/svg" viewBox="0 0 512 512"><rect width="512" height="512" rx="112" fill="#292824"/><path d="M111 377C151 290 190 200 240 117c8-14 25-14 34 0 50 83 89 173 129 260" fill="none" stroke="#f7f6f2" stroke-width="42" stroke-linecap="round"/><path d="M141 324c73-3 158-24 230-84" fill="none" stroke="#c96442" stroke-width="30" stroke-linecap="round"/><path d="M237 148c20 64 47 114 91 153" fill="none" stroke="#292824" stroke-width="50" stroke-linecap="round"/><path d="M237 148c20 64 47 114 91 153" fill="none" stroke="#f7f6f2" stroke-width="30" stroke-linecap="round"/><path d="M352 142c7 38 17 48 55 55-38 7-48 17-55 55-7-38-17-48-55-55 38-7 48-17 55-55Z" fill="#c96442"/></svg>
